<?xml version="1.0" encoding="UTF-8"?>
<!DOCTYPE svg PUBLIC "-//W3C//DTD SVG 1.1//EN" "http://www.w3.org/Graphics/SVG/1.1/DTD/svg11.dtd">
<!-- Creator: CorelDRAW 2020 (64 Bit) -->
<svg xmlns="http://www.w3.org/2000/svg" xml:space="preserve" width="49.925mm" height="9.5249mm" version="1.1" style="shape-rendering:geometricPrecision; text-rendering:geometricPrecision; image-rendering:optimizeQuality; fill-rule:evenodd; clip-rule:evenodd"
viewBox="0 0 4119.04 785.85"
 xmlns:xlink="http://www.w3.org/1999/xlink"
 xmlns:xodm="http://www.corel.com/coreldraw/odm/2003">
 <defs>
  <style type="text/css">
   <![CDATA[
    .fil6 {fill:none;fill-rule:nonzero}
    .fil0 {fill:#0F2137;fill-rule:nonzero}
    .fil7 {fill:#0F2137;fill-rule:nonzero}
    .fil4 {fill:#294B6E;fill-rule:nonzero}
    .fil5 {fill:#6283A3;fill-rule:nonzero}
    .fil1 {fill:#9ABADB;fill-rule:nonzero}
    .fil2 {fill:#D1E8FF;fill-rule:nonzero}
    .fil3 {fill:#F5F5FF;fill-rule:nonzero}
   ]]>
  </style>
   <clipPath id="id0" style="clip-rule:nonzero">
    <path d="M-0 785.85l785.86 0 0 -785.85 -785.86 0 0 785.85z"/>
   </clipPath>
 </defs>
 <g id="Camada_x0020_1">
  <metadata id="CorelCorpID_0Corel-Layer"/>
  <path class="fil0" d="M1137.11 240.81l-126.12 0 0 130.28 -65.69 0 0 -318.82 207.58 0 0 53.22 -141.89 0 0 82.33 126.12 0 0 52.99zm123.72 130.28l-65.69 0 0 -318.82 65.69 0 0 318.82zm126.78 -52.77l139.49 0 0 52.77 -205.18 0 0 -318.82 65.69 0 0 266.05zm247.22 52.77l-65.69 0 0 -318.82 65.69 0 0 318.82zm126.78 -112.33l0 112.33 -65.69 0 0 -318.82 124.38 0c23.94,0 44.96,4.38 63.07,13.14 18.24,8.75 32.26,21.24 42.04,37.44 9.78,16.06 14.67,34.38 14.67,54.96 0,31.24 -10.73,55.91 -32.19,74.01 -21.31,17.96 -50.87,26.94 -88.68,26.94l-57.59 0zm0 -53.21l58.69 0c17.38,0 30.58,-4.09 39.64,-12.27 9.2,-8.18 13.79,-19.85 13.79,-35.03 0,-15.62 -4.6,-28.25 -13.79,-37.89 -9.2,-9.63 -21.9,-14.6 -38.1,-14.88l-60.22 0 0 100.07zm415.61 27.37l-126.12 0 0 85.4 148.03 0 0 52.77 -213.73 0 0 -318.82 213.27 0 0 53.22 -147.58 0 0 75.98 126.12 0 0 51.46zm172.11 138.17l0 -318.82 111.68 0c38.69,0 68.03,7.45 88.02,22.33 20,14.74 30,36.43 30,65.04 0,15.62 -4.02,29.41 -12.03,41.38 -8.04,11.82 -19.21,20.51 -33.51,26.05 16.34,4.09 29.18,12.33 38.52,24.74 9.5,12.41 14.24,27.59 14.24,45.55 0,30.65 -9.79,53.87 -29.34,69.63 -19.56,15.76 -47.44,23.79 -83.65,24.08l-123.93 0zm65.69 -138.83l0 86.06 56.28 0c15.47,0 27.52,-3.65 36.12,-10.95 8.75,-7.45 13.14,-17.66 13.14,-30.66 0,-29.2 -15.11,-44.02 -45.32,-44.45l-60.22 0zm0 -46.42l48.61 0c33.13,-0.59 49.7,-13.79 49.7,-39.64 0,-14.45 -4.23,-24.82 -12.7,-31.1 -8.32,-6.42 -21.53,-9.63 -39.63,-9.63l-45.99 0 0 80.36zm400.72 119.56l-115.19 0 -21.9 65.69 -69.85 0 118.68 -318.82 60.88 0 119.34 318.82 -69.86 0 -22.11 -65.69zm-97.45 -53.21l79.7 0 -40.06 -119.34 -39.64 119.34zm432.9 -146.71l-97.67 0 0 265.61 -65.68 0 0 -265.61 -96.33 0 0 -53.22 259.68 0 0 53.22zm107.5 265.61l-65.68 0 0 -318.82 65.68 0 0 318.82zm226.44 -83.64c0,-12.41 -4.39,-21.9 -13.14,-28.47 -8.78,-6.72 -24.54,-13.72 -47.31,-21.01 -22.76,-7.45 -40.8,-14.75 -54.09,-21.9 -36.19,-19.56 -54.29,-45.91 -54.29,-79.06 0,-17.22 4.8,-32.55 14.45,-45.98 9.79,-13.58 23.71,-24.16 41.83,-31.75 18.25,-7.6 38.68,-11.39 61.29,-11.39 22.79,0 43.07,4.17 60.88,12.48 17.81,8.18 31.62,19.78 41.39,34.82 9.91,15.04 14.88,32.12 14.88,51.24l-65.68 0c0,-14.6 -4.6,-25.91 -13.79,-33.94 -9.22,-8.18 -22.14,-12.26 -38.77,-12.26 -16.05,0 -28.53,3.42 -37.44,10.29 -8.9,6.72 -13.36,15.62 -13.36,26.71 0,10.36 5.17,19.05 15.54,26.05 10.52,7.01 25.91,13.58 46.21,19.71 37.37,11.24 64.59,25.18 81.66,41.82 17.09,16.64 25.63,37.37 25.63,62.19 0,27.59 -10.43,49.26 -31.32,65.03 -20.87,15.62 -48.97,23.43 -84.31,23.43 -24.51,0 -46.85,-4.46 -66.99,-13.36 -20.15,-9.05 -35.53,-21.39 -46.21,-37 -10.5,-15.63 -15.76,-33.73 -15.76,-54.3l65.92 0c0,35.18 21.02,52.77 63.04,52.77 15.63,0 27.81,-3.14 36.59,-9.42 8.75,-6.42 13.14,-15.32 13.14,-26.71zm350.55 -181.96l-97.66 0 0 265.61 -65.69 0 0 -265.61 -96.35 0 0 -53.22 259.7 0 0 53.22zm191.38 199.92l-115.17 0 -21.9 65.69 -69.86 0 118.69 -318.82 60.86 0 119.34 318.82 -69.86 0 -22.11 -65.69zm-97.45 -53.21l79.72 0 -40.08 -119.34 -39.64 119.34z"/>
  <g>
  </g>
  <g style="clip-path:url(#id0)">
   <g>
    <polygon class="fil1" points="510.6,726.97 510.6,634.81 362.2,604.09 392.93,726.97 "/>
    <polygon class="fil2" points="275.26,726.97 392.93,726.97 392.93,604.09 275.26,634.81 "/>
    <polygon class="fil2" points="785.86,496.56 362.2,465.84 392.93,634.81 785.86,634.81 "/>
    <polygon class="fil3" points="-0,496.56 -0,634.81 392.93,634.81 392.93,465.84 "/>
    <polygon class="fil2" points="579.72,703.95 392.93,703.95 377.57,726.97 392.93,750 579.72,750 "/>
    <polygon class="fil3" points="392.93,703.95 206.13,703.95 206.13,749.99 392.93,749.99 "/>
    <polygon class="fil4" points="785.86,35.84 392.93,35.84 362.2,266.2 392.93,496.56 785.86,496.56 "/>
    <polygon class="fil5" points="392.93,35.84 -0,35.84 -0,496.56 392.93,496.56 "/>
    <polygon class="fil3" points="274.48,388.18 152.49,266.2 274.48,144.22 307.03,176.77 217.61,266.2 307.03,355.62 "/>
    <polygon class="fil2" points="511.38,388.18 478.82,355.62 568.24,266.2 478.82,176.77 511.38,144.22 633.35,266.2 "/>
    <polygon class="fil2" points="341.95,404.45 387.11,413.42 443.9,127.96 398.74,118.98 "/>
   </g>
  </g>
  <polygon class="fil6" points="-0,785.85 785.86,785.85 785.86,0 -0,0 "/>
  <path class="fil7" d="M938.34 653.99l23.51 -2.11c1.1,9.51 3.7,17.3 7.79,23.42 4.09,6.07 10.43,11 19.02,14.78 8.58,3.75 18.27,5.64 29.01,5.64 9.55,0 17.96,-1.41 25.26,-4.27 7.31,-2.86 12.72,-6.78 16.29,-11.76 3.57,-4.98 5.37,-10.39 5.37,-16.2 0,-5.9 -1.72,-11.05 -5.15,-15.49 -3.43,-4.41 -9.11,-8.1 -17.04,-11.14 -5.06,-1.94 -16.29,-5.02 -33.67,-9.2 -17.39,-4.18 -29.54,-8.1 -36.49,-11.8 -9.03,-4.75 -15.72,-10.65 -20.11,-17.66 -4.45,-7 -6.65,-14.88 -6.65,-23.55 0,-9.6 2.73,-18.53 8.14,-26.81 5.41,-8.32 13.29,-14.62 23.73,-18.93 10.39,-4.31 21.96,-6.48 34.68,-6.48 14,0 26.37,2.24 37.06,6.78 10.7,4.49 18.93,11.14 24.69,19.94 5.77,8.76 8.85,18.7 9.29,29.8l-24.03 1.85c-1.28,-11.93 -5.64,-20.96 -13.08,-27.03 -7.43,-6.12 -18.44,-9.16 -32.97,-9.16 -15.14,0 -26.19,2.77 -33.1,8.32 -6.91,5.54 -10.39,12.24 -10.39,20.07 0,6.77 2.47,12.37 7.35,16.76 4.84,4.36 17.38,8.89 37.72,13.47 20.34,4.62 34.3,8.63 41.86,12.06 10.96,5.06 19.11,11.44 24.35,19.23 5.24,7.75 7.83,16.68 7.83,26.81 0,10.07 -2.85,19.5 -8.62,28.39 -5.77,8.89 -14,15.8 -24.78,20.73 -10.78,4.93 -22.9,7.39 -36.4,7.39 -17.09,0 -31.39,-2.51 -42.92,-7.48 -11.58,-4.98 -20.6,-12.46 -27.16,-22.49 -6.61,-9.99 -10.04,-21.31 -10.39,-33.94zm176.69 -31.29c0,-31.34 8.45,-55.91 25.3,-73.64 16.86,-17.74 38.6,-26.59 65.29,-26.59 17.47,0 33.18,4.18 47.23,12.5 13.99,8.32 24.69,19.94 32.04,34.87 7.35,14.88 11.05,31.78 11.05,50.67 0,19.15 -3.88,36.32 -11.62,51.42 -7.75,15.14 -18.7,26.58 -32.88,34.33 -14.22,7.8 -29.53,11.67 -45.95,11.67 -17.83,0 -33.72,-4.31 -47.76,-12.9 -14,-8.58 -24.65,-20.3 -31.87,-35.17 -7.22,-14.83 -10.82,-30.55 -10.82,-47.14zm25.88 0.44c0,22.76 6.11,40.67 18.36,53.75 12.24,13.07 27.6,19.63 46.09,19.63 18.84,0 34.28,-6.6 46.47,-19.81 12.14,-13.2 18.23,-31.95 18.23,-56.25 0,-15.36 -2.6,-28.79 -7.8,-40.24 -5.19,-11.44 -12.8,-20.34 -22.8,-26.63 -10.04,-6.3 -21.25,-9.46 -33.71,-9.46 -17.7,0 -32.93,6.08 -45.69,18.23 -12.77,12.15 -19.15,32.4 -19.15,60.79zm188.52 91.6l0 -189.11 127.57 0 0 22.19 -102.48 0 0 58.9 88.74 0 0 22.19 -88.74 0 0 85.84 -25.09 0zm208.08 0l0 -166.92 -62.33 0 0 -22.19 149.75 0 0 22.19 -62.33 0 0 166.92 -25.09 0zm145.88 0l-49.78 -189.11 25.97 0 28.35 124c3.08,12.99 5.81,25.88 8.14,38.65 4.98,-20.16 7.88,-31.78 8.71,-34.86l35.75 -127.79 30.15 0 27.12 95.75c6.65,23.77 11.58,46.09 14.74,66.9 2.51,-11.92 5.73,-25.62 9.64,-41.06l29.54 -121.59 25.13 0 -51.76 189.11 -24.35 0 -39.66 -144.08c-3.34,-12.05 -5.37,-19.45 -6.11,-22.19 -2.16,8.63 -4.1,16.03 -5.77,22.14l-39.66 144.12 -26.15 0zm186.11 0l72.55 -189.11 27.51 0 76.99 189.11 -28.48 0 -21.88 -57.32 -79.63 0 -20.51 57.32 -26.54 0zm54.4 -77.65l64.44 0 -19.72 -52.42c-5.94,-15.93 -10.43,-29.1 -13.56,-39.49 -2.6,12.33 -6.07,24.43 -10.44,36.41l-20.73 55.5zm143.02 77.65l0 -189.11 83.81 0c16.86,0 29.67,1.72 38.43,5.11 8.76,3.39 15.76,9.38 21,17.96 5.24,8.59 7.84,18.09 7.84,28.48 0,13.42 -4.36,24.74 -13.03,33.94 -8.68,9.2 -22.05,15.01 -40.2,17.52 6.65,3.17 11.67,6.34 15.1,9.42 7.31,6.69 14.22,15.1 20.69,25.18l32.7 51.5 -31.25 0 -25 -39.35c-7.27,-11.4 -13.3,-20.07 -18.01,-26.1 -4.75,-6.03 -8.98,-10.21 -12.71,-12.63 -3.7,-2.38 -7.53,-4.05 -11.4,-5.02 -2.82,-0.57 -7.44,-0.88 -13.91,-0.88l-28.97 0 0 83.99 -25.09 0zm25.09 -105.65l53.7 0c11.44,0 20.34,-1.19 26.76,-3.56 6.43,-2.33 11.31,-6.12 14.61,-11.35 3.35,-5.2 5.02,-10.83 5.02,-16.95 0,-8.94 -3.22,-16.33 -9.69,-22.09 -6.47,-5.77 -16.68,-8.63 -30.64,-8.63l-59.77 0 0 62.6zm165.64 105.65l0 -189.11 136.55 0 0 22.19 -111.46 0 0 58.11 104.33 0 0 22.19 -104.33 0 0 64.44 115.94 0 0 22.19 -141.03 0zm249.01 0l0 -189.11 65.15 0c14.7,0 25.93,0.88 33.68,2.69 10.82,2.51 20.07,7.05 27.73,13.56 9.99,8.46 17.43,19.19 22.36,32.31 4.98,13.12 7.44,28.13 7.44,44.99 0,14.35 -1.67,27.07 -5.02,38.17 -3.35,11.09 -7.66,20.29 -12.9,27.56 -5.29,7.26 -11.01,12.99 -17.26,17.12 -6.2,4.18 -13.74,7.35 -22.54,9.51 -8.84,2.15 -18.97,3.21 -30.41,3.21l-68.23 0zm25.09 -22.19l40.32 0c12.46,0 22.23,-1.15 29.32,-3.47 7.09,-2.33 12.71,-5.59 16.95,-9.82 5.9,-5.95 10.52,-13.96 13.82,-23.99 3.3,-10.03 4.98,-22.19 4.98,-36.49 0,-19.81 -3.26,-35.04 -9.73,-45.69 -6.48,-10.65 -14.36,-17.79 -23.64,-21.39 -6.69,-2.6 -17.47,-3.88 -32.36,-3.88l-39.66 0 0 144.74zm166.17 22.19l0 -189.11 136.55 0 0 22.19 -111.46 0 0 58.11 104.33 0 0 22.19 -104.33 0 0 64.44 115.94 0 0 22.19 -141.03 0zm229.51 0l-73.07 -189.11 27.11 0 49.13 137.43c3.91,11.01 7.26,21.31 9.9,30.95 2.9,-10.35 6.3,-20.64 10.16,-30.95l50.98 -137.43 25.53 0 -73.73 189.11 -26.02 0zm122.82 0l0 -189.11 136.55 0 0 22.19 -111.46 0 0 58.11 104.33 0 0 22.19 -104.33 0 0 64.44 115.94 0 0 22.19 -141.03 0zm174.58 0l0 -189.11 25.09 0 0 166.92 92.97 0 0 22.19 -118.06 0zm140.29 -92.04c0,-31.34 8.45,-55.91 25.3,-73.64 16.86,-17.74 38.6,-26.59 65.29,-26.59 17.47,0 33.19,4.18 47.23,12.5 13.99,8.32 24.69,19.94 32.04,34.87 7.35,14.88 11.05,31.78 11.05,50.67 0,19.15 -3.88,36.32 -11.62,51.42 -7.75,15.14 -18.7,26.58 -32.88,34.33 -14.22,7.8 -29.54,11.67 -45.96,11.67 -17.83,0 -33.72,-4.31 -47.76,-12.9 -14,-8.58 -24.65,-20.3 -31.87,-35.17 -7.22,-14.83 -10.82,-30.55 -10.82,-47.14zm25.88 0.44c0,22.76 6.11,40.67 18.36,53.75 12.24,13.07 27.6,19.63 46.09,19.63 18.84,0 34.29,-6.6 46.48,-19.81 12.14,-13.2 18.23,-31.95 18.23,-56.25 0,-15.36 -2.6,-28.79 -7.8,-40.24 -5.19,-11.44 -12.8,-20.34 -22.8,-26.63 -10.04,-6.3 -21.26,-9.46 -33.72,-9.46 -17.7,0 -32.93,6.08 -45.69,18.23 -12.77,12.15 -19.15,32.4 -19.15,60.79zm187.21 91.6l0 -189.11 71.39 0c12.54,0 22.14,0.62 28.79,1.81 9.29,1.54 17.08,4.49 23.37,8.8 6.3,4.36 11.36,10.44 15.19,18.23 3.83,7.79 5.72,16.38 5.72,25.75 0,16.02 -5.1,29.63 -15.36,40.72 -10.21,11.14 -28.74,16.68 -55.5,16.68l-48.51 0 0 77.13 -25.08 0zm25.08 -99.31l48.86 0c16.2,0 27.65,-2.99 34.47,-9.02 6.77,-6.03 10.16,-14.49 10.16,-25.44 0,-7.88 -1.98,-14.66 -5.98,-20.3 -4.01,-5.64 -9.29,-9.37 -15.81,-11.18 -4.22,-1.1 -12.01,-1.67 -23.32,-1.67l-48.38 0 0 67.61zm151.6 99.31l0 -189.11 136.55 0 0 22.19 -111.46 0 0 58.11 104.33 0 0 22.19 -104.33 0 0 64.44 115.94 0 0 22.19 -141.03 0zm176.16 0l0 -189.11 83.81 0c16.86,0 29.67,1.72 38.43,5.11 8.76,3.39 15.76,9.38 21,17.96 5.24,8.59 7.84,18.09 7.84,28.48 0,13.42 -4.36,24.74 -13.03,33.94 -8.68,9.2 -22.05,15.01 -40.2,17.52 6.65,3.17 11.67,6.34 15.1,9.42 7.31,6.69 14.22,15.1 20.69,25.18l32.7 51.5 -31.25 0 -25 -39.35c-7.27,-11.4 -13.3,-20.07 -18.01,-26.1 -4.75,-6.03 -8.98,-10.21 -12.71,-12.63 -3.7,-2.38 -7.53,-4.05 -11.4,-5.02 -2.82,-0.57 -7.44,-0.88 -13.91,-0.88l-28.97 0 0 83.99 -25.09 0zm25.09 -105.65l53.7 0c11.44,0 20.34,-1.19 26.76,-3.56 6.43,-2.33 11.31,-6.12 14.61,-11.35 3.35,-5.2 5.02,-10.83 5.02,-16.95 0,-8.94 -3.22,-16.33 -9.69,-22.09 -6.47,-5.77 -16.68,-8.63 -30.64,-8.63l-59.77 0 0 62.6z"/>
 </g>
</svg>
