<svg width="189" height="38" viewBox="0 0 189 38" fill="none" xmlns="http://www.w3.org/2000/svg">
<path d="M52.0912 13.0316H46.3133V19H43.304V4.39487H52.8134V6.8324H46.3133V10.6041H52.0912V13.0316ZM57.7587 19H54.7494V4.39487H57.7587V19ZM63.5666 16.5825H69.9564V19H60.5573V4.39487H63.5666V16.5825ZM74.8916 19H71.8823V4.39487H74.8916V19ZM80.6996 13.8541V19H77.6903V4.39487H83.3879C84.4846 4.39487 85.4476 4.59549 86.2768 4.99673C87.1127 5.39797 87.7547 5.96974 88.2028 6.71203C88.6508 7.44764 88.8748 8.2869 88.8748 9.22981C88.8748 10.6609 88.3833 11.7911 87.4003 12.6203C86.4239 13.4428 85.0697 13.8541 83.3377 13.8541H80.6996ZM80.6996 11.4166H83.3879C84.1837 11.4166 84.7889 11.2293 85.2035 10.8548C85.6248 10.4803 85.8354 9.94536 85.8354 9.24987C85.8354 8.53433 85.6248 7.95588 85.2035 7.51451C84.7822 7.07315 84.2004 6.84578 83.4581 6.8324H80.6996V11.4166ZM99.7384 12.6704H93.9605V16.5825H100.742V19H90.9512V4.39487H100.721V6.8324H93.9605V10.3132H99.7384V12.6704ZM107.623 19V4.39487H112.739C114.511 4.39487 115.855 4.73593 116.771 5.41803C117.687 6.09345 118.145 7.08652 118.145 8.39724C118.145 9.11278 117.961 9.74474 117.594 10.2931C117.226 10.8348 116.714 11.2327 116.059 11.4868C116.808 11.674 117.396 12.0519 117.824 12.6203C118.259 13.1887 118.476 13.8842 118.476 14.7067C118.476 16.1111 118.028 17.1744 117.132 17.8966C116.236 18.6188 114.959 18.9866 113.3 19H107.623ZM110.632 12.6403V16.5825H113.21C113.919 16.5825 114.471 16.4153 114.865 16.081C115.266 15.7399 115.467 15.2718 115.467 14.6766C115.467 13.3392 114.775 12.6604 113.391 12.6403H110.632ZM110.632 10.5138H112.859C114.377 10.487 115.136 9.88183 115.136 8.69817C115.136 8.03612 114.942 7.56132 114.554 7.27377C114.173 6.97953 113.568 6.8324 112.739 6.8324H110.632V10.5138ZM128.989 15.9907H123.712L122.709 19H119.509L124.946 4.39487H127.735L133.202 19H130.002L128.989 15.9907ZM124.525 13.5532H128.176L126.341 8.08628L124.525 13.5532ZM144.356 6.8324H139.882V19H136.873V6.8324H132.46V4.39487H144.356V6.8324ZM149.281 19H146.272V4.39487H149.281V19ZM159.654 15.1682C159.654 14.5997 159.453 14.1651 159.052 13.8641C158.65 13.5565 157.928 13.2355 156.885 12.9012C155.842 12.5601 155.016 12.2257 154.407 11.8981C152.749 11.002 151.92 9.79489 151.92 8.27687C151.92 7.48776 152.14 6.78559 152.582 6.17036C153.03 5.54844 153.668 5.06361 154.498 4.71586C155.334 4.36812 156.27 4.19425 157.306 4.19425C158.35 4.19425 159.279 4.38484 160.095 4.76602C160.911 5.14051 161.543 5.67215 161.991 6.36095C162.445 7.04974 162.673 7.83216 162.673 8.7082H159.664C159.664 8.03947 159.453 7.5212 159.032 7.1534C158.61 6.77891 158.018 6.59166 157.256 6.59166C156.521 6.59166 155.949 6.74881 155.541 7.06312C155.133 7.37073 154.929 7.77866 154.929 8.2869C154.929 8.7617 155.166 9.15959 155.641 9.48059C156.123 9.80158 156.828 10.1025 157.758 10.3834C159.47 10.8983 160.717 11.5369 161.499 12.2993C162.282 13.0617 162.673 14.0113 162.673 15.1481C162.673 16.412 162.195 17.4051 161.238 18.1273C160.282 18.8428 158.995 19.2006 157.376 19.2006C156.253 19.2006 155.23 18.9967 154.307 18.5887C153.384 18.1741 152.679 17.609 152.19 16.8935C151.709 16.1779 151.468 15.3487 151.468 14.4058H154.488C154.488 16.0175 155.451 16.8233 157.376 16.8233C158.092 16.8233 158.65 16.6795 159.052 16.3919C159.453 16.0977 159.654 15.6898 159.654 15.1682ZM175.713 6.8324H171.239V19H168.23V6.8324H163.816V4.39487H175.713V6.8324ZM184.48 15.9907H179.204L178.201 19H175.001L180.438 4.39487H183.226L188.693 19H185.493L184.48 15.9907ZM180.016 13.5532H183.668L181.832 8.08628L180.016 13.5532Z" fill="#0F2137"/>
<path d="M42.9835 34.6478V26.1742H45.3755C46.1126 26.1742 46.7645 26.3372 47.3309 26.6631C47.8974 26.989 48.3339 27.4526 48.6404 28.054C48.9508 28.6554 49.1079 29.346 49.1118 30.1259V30.6671C49.1118 31.4664 48.9566 32.1667 48.6462 32.768C48.3397 33.3694 47.8993 33.8311 47.3251 34.1532C46.7548 34.4752 46.0894 34.6401 45.3289 34.6478H42.9835ZM44.1009 27.0938V33.7341H45.2765C46.1379 33.7341 46.8071 33.4664 47.2844 32.931C47.7655 32.3956 48.006 31.6332 48.006 30.6438V30.1491C48.006 29.1869 47.779 28.4401 47.3251 27.9085C46.875 27.3731 46.2349 27.1015 45.4046 27.0938H44.1009ZM55.595 30.7311H51.9227V33.7341H56.1886V34.6478H50.8053V26.1742H56.1304V27.0938H51.9227V29.8174H55.595V30.7311ZM60.0762 30.8708C59.1179 30.5953 58.4196 30.2578 57.9811 29.8582C57.5466 29.4546 57.3293 28.958 57.3293 28.3683C57.3293 27.701 57.5951 27.15 58.1266 26.7155C58.662 26.277 59.3565 26.0578 60.2101 26.0578C60.7921 26.0578 61.31 26.1703 61.764 26.3954C62.2218 26.6204 62.5749 26.9308 62.8232 27.3265C63.0754 27.7223 63.2015 28.1549 63.2015 28.6244H62.0783C62.0783 28.1122 61.9153 27.7107 61.5894 27.4197C61.2635 27.1248 60.8037 26.9774 60.2101 26.9774C59.6592 26.9774 59.2285 27.0996 58.9181 27.344C58.6116 27.5846 58.4583 27.9202 58.4583 28.3508C58.4583 28.6961 58.6038 28.9891 58.8948 29.2296C59.1897 29.4663 59.6883 29.6836 60.3905 29.8814C61.0967 30.0793 61.6476 30.2985 62.0433 30.5391C62.443 30.7757 62.7378 31.0531 62.9279 31.3713C63.1219 31.6894 63.2189 32.0639 63.2189 32.4945C63.2189 33.1812 62.9512 33.7322 62.4158 34.1473C61.8804 34.5586 61.1645 34.7642 60.2683 34.7642C59.6863 34.7642 59.1431 34.6537 58.6388 34.4325C58.1344 34.2075 57.7445 33.901 57.469 33.513C57.1974 33.125 57.0616 32.6846 57.0616 32.1919H58.1848C58.1848 32.704 58.373 33.1095 58.7493 33.4082C59.1296 33.7031 59.6359 33.8505 60.2683 33.8505C60.858 33.8505 61.31 33.7302 61.6243 33.4897C61.9386 33.2491 62.0957 32.9213 62.0957 32.5062C62.0957 32.091 61.9502 31.7709 61.6592 31.5459C61.3682 31.317 60.8406 31.0919 60.0762 30.8708ZM69.4461 30.7311H65.7738V33.7341H70.0397V34.6478H64.6564V26.1742H69.9815V27.0938H65.7738V29.8174H69.4461V30.7311ZM77.943 34.6478H76.8198L72.5539 28.118V34.6478H71.4306V26.1742H72.5539L76.8314 32.7331V26.1742H77.943V34.6478ZM82.7327 33.1638L85.1537 26.1742H86.3759L83.2332 34.6478H82.2438L79.1069 26.1742H80.3233L82.7327 33.1638ZM93.9532 30.6846C93.9532 31.5149 93.8135 32.2404 93.5342 32.8612C93.2548 33.4781 92.8591 33.9495 92.347 34.2754C91.8348 34.6013 91.2373 34.7642 90.5545 34.7642C89.8871 34.7642 89.2954 34.6013 88.7794 34.2754C88.2634 33.9456 87.8618 33.4781 87.5747 32.8728C87.2915 32.2637 87.146 31.5595 87.1382 30.7602V30.1491C87.1382 29.3344 87.2799 28.6147 87.5631 27.99C87.8463 27.3653 88.2459 26.8881 88.762 26.5583C89.2819 26.2247 89.8755 26.0578 90.5428 26.0578C91.2218 26.0578 91.8193 26.2227 92.3353 26.5525C92.8552 26.8784 93.2548 27.3537 93.5342 27.9784C93.8135 28.5991 93.9532 29.3227 93.9532 30.1491V30.6846ZM92.8416 30.1375C92.8416 29.1326 92.6399 28.3625 92.2364 27.827C91.8329 27.2877 91.2684 27.0181 90.5428 27.0181C89.8367 27.0181 89.2799 27.2877 88.8725 27.827C88.469 28.3625 88.2615 29.1074 88.2498 30.0618V30.6846C88.2498 31.6584 88.4535 32.4247 88.8609 32.9834C89.2722 33.5382 89.8367 33.8156 90.5545 33.8156C91.2761 33.8156 91.8348 33.5537 92.2306 33.0299C92.6263 32.5023 92.83 31.7476 92.8416 30.766V30.1375ZM96.7525 33.7341H100.768V34.6478H95.6293V26.1742H96.7525V33.7341ZM103.824 33.1638L106.245 26.1742H107.467L104.324 34.6478H103.335L100.198 26.1742H101.414L103.824 33.1638ZM113.397 30.7311H109.725V33.7341H113.991V34.6478H108.607V26.1742H113.933V27.0938H109.725V29.8174H113.397V30.7311ZM115.382 34.6478V26.1742H117.774C118.511 26.1742 119.163 26.3372 119.729 26.6631C120.295 26.989 120.732 27.4526 121.038 28.054C121.349 28.6554 121.506 29.346 121.51 30.1259V30.6671C121.51 31.4664 121.355 32.1667 121.044 32.768C120.738 33.3694 120.297 33.8311 119.723 34.1532C119.153 34.4752 118.487 34.6401 117.727 34.6478H115.382ZM116.499 27.0938V33.7341H117.675C118.536 33.7341 119.205 33.4664 119.682 32.931C120.164 32.3956 120.404 31.6332 120.404 30.6438V30.1491C120.404 29.1869 120.177 28.4401 119.723 27.9085C119.273 27.3731 118.633 27.1015 117.803 27.0938H116.499ZM129.722 30.6846C129.722 31.5149 129.582 32.2404 129.303 32.8612C129.023 33.4781 128.627 33.9495 128.115 34.2754C127.603 34.6013 127.006 34.7642 126.323 34.7642C125.656 34.7642 125.064 34.6013 124.548 34.2754C124.032 33.9456 123.63 33.4781 123.343 32.8728C123.06 32.2637 122.914 31.5595 122.907 30.7602V30.1491C122.907 29.3344 123.048 28.6147 123.331 27.99C123.615 27.3653 124.014 26.8881 124.53 26.5583C125.05 26.2247 125.644 26.0578 126.311 26.0578C126.99 26.0578 127.588 26.2227 128.104 26.5525C128.624 26.8784 129.023 27.3537 129.303 27.9784C129.582 28.5991 129.722 29.3227 129.722 30.1491V30.6846ZM128.61 30.1375C128.61 29.1326 128.408 28.3625 128.005 27.827C127.601 27.2877 127.037 27.0181 126.311 27.0181C125.605 27.0181 125.048 27.2877 124.641 27.827C124.237 28.3625 124.03 29.1074 124.018 30.0618V30.6846C124.018 31.6584 124.222 32.4247 124.629 32.9834C125.041 33.5382 125.605 33.8156 126.323 33.8156C127.045 33.8156 127.603 33.5537 127.999 33.0299C128.395 32.5023 128.598 31.7476 128.61 30.766V30.1375ZM134.505 31.22H132.515V34.6478H131.392V26.1742H134.197C135.151 26.1742 135.885 26.3915 136.397 26.826C136.913 27.2606 137.171 27.893 137.171 28.7233C137.171 29.251 137.027 29.7107 136.74 30.1026C136.457 30.4944 136.061 30.7874 135.553 30.9814L137.543 34.578V34.6478H136.345L134.505 31.22ZM132.515 30.3063H134.232C134.787 30.3063 135.227 30.1627 135.553 29.8756C135.883 29.5885 136.048 29.2044 136.048 28.7233C136.048 28.1995 135.891 27.7979 135.576 27.5186C135.266 27.2392 134.816 27.0976 134.226 27.0938H132.515V30.3063ZM141.699 34.6478V26.1742H144.091C144.828 26.1742 145.48 26.3372 146.046 26.6631C146.613 26.989 147.049 27.4526 147.356 28.054C147.666 28.6554 147.823 29.346 147.827 30.1259V30.6671C147.827 31.4664 147.672 32.1667 147.361 32.768C147.055 33.3694 146.615 33.8311 146.04 34.1532C145.47 34.4752 144.805 34.6401 144.044 34.6478H141.699ZM142.816 27.0938V33.7341H143.992C144.853 33.7341 145.522 33.4664 146 32.931C146.481 32.3956 146.721 31.6332 146.721 30.6438V30.1491C146.721 29.1869 146.494 28.4401 146.04 27.9085C145.59 27.3731 144.95 27.1015 144.12 27.0938H142.816ZM154.31 30.7311H150.638V33.7341H154.904V34.6478H149.521V26.1742H154.846V27.0938H150.638V29.8174H154.31V30.7311ZM163.93 32.4363H160.38L159.583 34.6478H158.431L161.666 26.1742H162.644L165.886 34.6478H164.739L163.93 32.4363ZM160.718 31.5168H163.599L162.155 27.5535L160.718 31.5168ZM168.144 31.3306V34.6478H167.026V26.1742H170.152C171.079 26.1742 171.804 26.4109 172.328 26.8842C172.856 27.3576 173.12 27.9842 173.12 28.764C173.12 29.5866 172.862 30.2209 172.346 30.6671C171.834 31.1094 171.098 31.3306 170.14 31.3306H168.144ZM168.144 30.4169H170.152C170.749 30.4169 171.207 30.2772 171.525 29.9978C171.843 29.7146 172.002 29.3072 172.002 28.7757C172.002 28.2713 171.843 27.8678 171.525 27.5652C171.207 27.2625 170.77 27.1054 170.216 27.0938H168.144V30.4169ZM175.663 31.3306V34.6478H174.546V26.1742H177.671C178.598 26.1742 179.324 26.4109 179.847 26.8842C180.375 27.3576 180.639 27.9842 180.639 28.764C180.639 29.5866 180.381 30.2209 179.865 30.6671C179.353 31.1094 178.617 31.3306 177.659 31.3306H175.663ZM175.663 30.4169H177.671C178.268 30.4169 178.726 30.2772 179.044 29.9978C179.362 29.7146 179.522 29.3072 179.522 28.7757C179.522 28.2713 179.362 27.8678 179.044 27.5652C178.726 27.2625 178.29 27.1054 177.735 27.0938H175.663V30.4169ZM184.561 30.8708C183.603 30.5953 182.905 30.2578 182.466 29.8582C182.032 29.4546 181.814 28.958 181.814 28.3683C181.814 27.701 182.08 27.15 182.612 26.7155C183.147 26.277 183.842 26.0578 184.695 26.0578C185.277 26.0578 185.795 26.1703 186.249 26.3954C186.707 26.6204 187.06 26.9308 187.308 27.3265C187.561 27.7223 187.687 28.1549 187.687 28.6244H186.563C186.563 28.1122 186.4 27.7107 186.075 27.4197C185.749 27.1248 185.289 26.9774 184.695 26.9774C184.144 26.9774 183.714 27.0996 183.403 27.344C183.097 27.5846 182.944 27.9202 182.944 28.3508C182.944 28.6961 183.089 28.9891 183.38 29.2296C183.675 29.4663 184.173 29.6836 184.876 29.8814C185.582 30.0793 186.133 30.2985 186.529 30.5391C186.928 30.7757 187.223 31.0531 187.413 31.3713C187.607 31.6894 187.704 32.0639 187.704 32.4945C187.704 33.1812 187.436 33.7322 186.901 34.1473C186.366 34.5586 185.65 34.7642 184.753 34.7642C184.171 34.7642 183.628 34.6537 183.124 34.4325C182.62 34.2075 182.23 33.901 181.954 33.513C181.683 33.125 181.547 32.6846 181.547 32.1919H182.67C182.67 32.704 182.858 33.1095 183.235 33.4082C183.615 33.7031 184.121 33.8505 184.753 33.8505C185.343 33.8505 185.795 33.7302 186.109 33.4897C186.424 33.2491 186.581 32.9213 186.581 32.5062C186.581 32.091 186.435 31.7709 186.144 31.5459C185.853 31.317 185.326 31.0919 184.561 30.8708Z" fill="#0F2137"/>
<g clip-path="url(#clip0)">
<path d="M23.3904 35.3031V31.081L16.5926 29.6736L18 35.3031H23.3904Z" fill="#9ABADB"/>
<path d="M12.6096 35.3031H18V29.6736L12.6096 31.081V35.3031Z" fill="#D1E8FF"/>
<path d="M36 24.7478L16.5926 23.3404L18 31.081H36V24.7478Z" fill="#D1E8FF"/>
<path d="M0 24.7478V31.081H18V23.3404L0 24.7478Z" fill="#F5F5FF"/>
<path d="M26.557 34.2484H18L17.2964 35.3031L18 36.3578H26.557V34.2484Z" fill="#D1E8FF"/>
<path d="M18 34.2481H9.44299V36.3575H18V34.2481Z" fill="#F5F5FF"/>
<path d="M36 3.64222H18L16.5926 14.195L18 24.7478H36V3.64222Z" fill="#294B6E"/>
<path d="M18 3.64222H0V24.7479H18V3.64222Z" fill="#6283A3"/>
<path d="M12.5739 19.783L6.98584 14.195L12.5739 8.60699L14.0654 10.0985L9.96892 14.195L14.0654 18.2915L12.5739 19.783Z" fill="#F5F5FF"/>
<path d="M23.4262 19.783L21.9346 18.2915L26.0311 14.195L21.9346 10.0985L23.4262 8.60699L29.0142 14.195L23.4262 19.783Z" fill="#D1E8FF"/>
<path d="M15.6648 20.5279L17.7337 20.9394L20.3349 7.86254L18.266 7.451L15.6648 20.5279Z" fill="#D1E8FF"/>
</g>
<defs>
<clipPath id="clip0">
<rect width="36" height="36" fill="white" transform="translate(0 2)"/>
</clipPath>
</defs>
</svg>
