<?xml version="1.0" encoding="UTF-8"?>
<!DOCTYPE svg PUBLIC "-//W3C//DTD SVG 1.1//EN" "http://www.w3.org/Graphics/SVG/1.1/DTD/svg11.dtd">
<!-- Creator: CorelDRAW 2020 (64 Bit) -->
<svg xmlns="http://www.w3.org/2000/svg" xml:space="preserve" width="49.9248mm" height="9.5249mm" version="1.1" style="shape-rendering:geometricPrecision; text-rendering:geometricPrecision; image-rendering:optimizeQuality; fill-rule:evenodd; clip-rule:evenodd"
viewBox="0 0 3042.92 580.54"
 xmlns:xlink="http://www.w3.org/1999/xlink"
 xmlns:xodm="http://www.corel.com/coreldraw/odm/2003">
 <defs>
  <style type="text/css">
   <![CDATA[
    .fil6 {fill:none;fill-rule:nonzero}
    .fil2 {fill:#0063C6;fill-rule:nonzero}
    .fil0 {fill:#0F2137;fill-rule:nonzero}
    .fil4 {fill:#24548F;fill-rule:nonzero}
    .fil3 {fill:#367ED6;fill-rule:nonzero}
    .fil5 {fill:#70A0DB;fill-rule:nonzero}
    .fil1 {fill:#D1E8FF;fill-rule:nonzero}
   ]]>
  </style>
   <clipPath id="id0" style="clip-rule:nonzero">
    <path d="M-0 580.54l580.55 0 0 -580.54 -580.55 0 0 580.54z"/>
   </clipPath>
 </defs>
 <g id="Camada_x0020_1">
  <metadata id="CorelCorpID_0Corel-Layer"/>
  <path class="fil0" d="M840.03 177.89l-93.17 0 0 96.25 -48.53 0 0 -235.53 153.35 0 0 39.32 -104.82 0 0 60.82 93.17 0 0 39.15 0 -0.01zm91.4 96.24l-48.53 0 0 -235.53 48.53 0 0 235.53zm93.66 -38.98l103.05 0 0 38.98 -151.58 0 0 -235.53 48.53 0 0 196.55zm182.63 38.98l-48.53 0 0 -235.53 48.53 0 0 235.53zm93.66 -82.98l0 82.98 -48.53 0 0 -235.53 91.88 0c17.69,0 33.21,3.24 46.59,9.71 13.48,6.47 23.83,15.69 31.05,27.66 7.22,11.87 10.84,25.4 10.84,40.6 0,23.08 -7.93,41.31 -23.78,54.67 -15.74,13.27 -37.58,19.9 -65.51,19.9l-42.54 0 0 0.01zm0 -39.31l43.36 0c12.84,0 22.59,-3.02 29.29,-9.06 6.8,-6.04 10.18,-14.66 10.18,-25.88 0,-11.54 -3.4,-20.87 -10.18,-27.99 -6.8,-7.11 -16.18,-10.79 -28.15,-11l-44.49 0 0 73.93 -0.01 0zm307.03 20.22l-93.17 0 0 63.09 109.36 0 0 38.98 -157.89 0 0 -235.53 157.55 0 0 39.32 -109.02 0 0 56.13 93.17 0 0 38.01 0.01 -0.01zm127.14 102.07l0 -235.53 82.5 0c28.58,0 50.26,5.5 65.02,16.5 14.77,10.89 22.16,26.92 22.16,48.05 0,11.54 -2.97,21.73 -8.89,30.57 -5.94,8.73 -14.19,15.15 -24.76,19.24 12.07,3.02 21.56,9.11 28.46,18.28 7.02,9.17 10.52,20.38 10.52,33.65 0,22.64 -7.23,39.79 -21.67,51.44 -14.45,11.64 -35.05,17.57 -61.8,17.79l-91.55 0 0.01 0.01zm48.53 -102.55l0 63.58 41.57 0c11.43,0 20.33,-2.69 26.68,-8.09 6.47,-5.5 9.71,-13.04 9.71,-22.65 0,-21.57 -11.16,-32.52 -33.48,-32.84l-44.49 0zm0 -34.3l35.91 0c24.48,-0.44 36.72,-10.18 36.72,-29.29 0,-10.67 -3.13,-18.33 -9.38,-22.97 -6.14,-4.74 -15.91,-7.11 -29.27,-7.11l-33.97 0 0 59.37 0 0.01zm296.03 88.33l-85.1 0 -16.18 48.53 -51.6 0 87.68 -235.53 44.98 0 88.16 235.53 -51.61 0 -16.33 -48.53zm-71.99 -39.31l58.88 0 -29.59 -88.16 -29.29 88.16zm319.8 -108.38l-72.15 0 0 196.22 -48.52 0 0 -196.22 -71.17 0 0 -39.32 191.84 0 0 39.32zm79.41 196.22l-48.52 0 0 -235.53 48.52 0 0 235.53zm167.28 -61.79c0,-9.17 -3.24,-16.18 -9.71,-21.03 -6.49,-4.96 -18.13,-10.14 -34.95,-15.52 -16.82,-5.5 -30.14,-10.9 -39.96,-16.18 -26.73,-14.45 -40.11,-33.92 -40.11,-58.4 0,-12.72 3.55,-24.04 10.67,-33.97 7.23,-10.03 17.52,-17.85 30.9,-23.45 13.48,-5.61 28.57,-8.42 45.28,-8.42 16.83,0 31.82,3.08 44.98,9.22 13.16,6.04 23.36,14.61 30.58,25.72 7.32,11.11 11,23.73 11,37.86l-48.52 0c0,-10.79 -3.4,-19.14 -10.18,-25.07 -6.81,-6.04 -16.35,-9.06 -28.64,-9.06 -11.85,0 -21.08,2.53 -27.66,7.6 -6.58,4.96 -9.87,11.54 -9.87,19.73 0,7.66 3.82,14.07 11.48,19.24 7.77,5.18 19.14,10.03 34.14,14.56 27.6,8.3 47.72,18.6 60.33,30.9 12.62,12.29 18.93,27.6 18.93,45.94 0,20.38 -7.7,36.39 -23.14,48.04 -15.42,11.54 -36.17,17.31 -62.28,17.31 -18.11,0 -34.61,-3.3 -49.49,-9.87 -14.88,-6.69 -26.25,-15.8 -34.14,-27.34 -7.76,-11.54 -11.64,-24.92 -11.64,-40.11l48.7 0c0,25.99 15.53,38.98 46.57,38.98 11.54,0 20.55,-2.32 27.03,-6.96 6.47,-4.74 9.71,-11.32 9.71,-19.73l-0.01 0.01zm258.97 -134.43l-72.15 0 0 196.22 -48.53 0 0 -196.22 -71.18 0 0 -39.32 191.85 0 0 39.32zm141.38 147.69l-85.08 0 -16.18 48.53 -51.61 0 87.68 -235.53 44.96 0 88.16 235.53 -51.61 0 -16.33 -48.53 -0.01 0zm-71.99 -39.31l58.89 0 -29.61 -88.16 -29.29 88.16 0.01 0z"/>
  <g>
  </g>
  <g style="clip-path:url(#id0)">
   <g>
    <polygon class="fil1" points="377.2,537.04 377.2,468.96 267.57,446.26 290.27,537.04 "/>
    <polygon class="fil1" points="203.35,537.04 290.27,537.04 290.27,446.26 203.35,468.96 "/>
    <polygon class="fil2" points="580.55,366.83 267.57,344.14 290.27,468.96 580.55,468.96 "/>
    <polygon class="fil3" points="-0,366.83 -0,468.96 290.27,468.96 290.27,344.14 "/>
    <polygon class="fil2" points="428.27,520.04 290.27,520.04 278.93,537.04 290.27,554.05 428.27,554.05 "/>
    <polygon class="fil3" points="290.27,520.04 152.28,520.04 152.28,554.05 290.27,554.05 "/>
    <polygon class="fil4" points="580.55,26.47 290.27,26.47 267.57,196.65 290.27,366.83 580.55,366.83 "/>
    <polygon class="fil5" points="290.27,26.47 -0,26.47 -0,366.83 290.27,366.83 "/>
    <polygon class="fil1" points="202.77,286.76 112.65,196.65 202.77,106.54 226.81,130.59 160.76,196.65 226.81,262.71 "/>
    <polygon class="fil1" points="377.78,286.76 353.72,262.71 419.78,196.65 353.72,130.59 377.78,106.54 467.88,196.65 "/>
    <polygon class="fil1" points="252.61,298.78 285.97,305.41 327.93,94.53 294.57,87.89 "/>
   </g>
  </g>
  <polygon class="fil6" points="-0,580.54 580.55,580.54 580.55,0 -0,0 "/>
  <path class="fil0" d="M693.19 483.13l17.37 -1.56c0.81,7.03 2.73,12.78 5.75,17.3 3.02,4.49 7.7,8.12 14.05,10.92 6.34,2.77 13.49,4.17 21.43,4.17 7.06,0 13.27,-1.04 18.66,-3.16 5.4,-2.11 9.4,-5.01 12.03,-8.69 2.64,-3.68 3.97,-7.67 3.97,-11.97 0,-4.36 -1.27,-8.16 -3.8,-11.44 -2.54,-3.26 -6.73,-5.99 -12.59,-8.23 -3.74,-1.43 -12.03,-3.71 -24.87,-6.8 -12.85,-3.09 -21.82,-5.99 -26.96,-8.72 -6.67,-3.51 -11.61,-7.87 -14.85,-13.04 -3.29,-5.17 -4.91,-11 -4.91,-17.4 0,-7.09 2.02,-13.69 6.02,-19.81 4,-6.14 9.82,-10.8 17.53,-13.98 7.67,-3.18 16.22,-4.78 25.62,-4.78 10.34,0 19.48,1.65 27.38,5.01 7.91,3.32 13.98,8.23 18.24,14.73 4.26,6.47 6.54,13.82 6.86,22.02l-17.75 1.37c-0.94,-8.81 -4.17,-15.48 -9.66,-19.97 -5.49,-4.52 -13.62,-6.77 -24.36,-6.77 -11.18,0 -19.35,2.05 -24.45,6.14 -5.11,4.09 -7.67,9.04 -7.67,14.83 0,5 1.82,9.14 5.43,12.38 3.58,3.22 12.84,6.57 27.87,9.95 15.02,3.41 25.34,6.38 30.93,8.91 8.09,3.74 14.12,8.45 17.99,14.21 3.87,5.72 5.78,12.32 5.78,19.81 0,7.44 -2.1,14.4 -6.37,20.97 -4.26,6.57 -10.34,11.67 -18.3,15.32 -7.97,3.64 -16.92,5.46 -26.89,5.46 -12.62,0 -23.19,-1.85 -31.71,-5.53 -8.56,-3.68 -15.22,-9.2 -20.06,-16.61 -4.88,-7.38 -7.42,-15.74 -7.67,-25.07l-0.01 0.02zm130.53 -23.11c0,-23.15 6.24,-41.31 18.69,-54.4 12.46,-13.1 28.52,-19.64 48.23,-19.64 12.9,0 24.51,3.09 34.89,9.23 10.34,6.14 18.24,14.73 23.67,25.76 5.43,11 8.16,23.48 8.16,37.43 0,14.15 -2.86,26.83 -8.58,37.98 -5.72,11.18 -13.82,19.64 -24.29,25.36 -10.51,5.76 -21.81,8.62 -33.94,8.62 -13.17,0 -24.91,-3.18 -35.28,-9.53 -10.34,-6.34 -18.21,-14.99 -23.55,-25.98 -5.33,-10.95 -7.99,-22.57 -7.99,-34.83l-0.01 0.01zm19.12 0.32c0,16.82 4.52,30.04 13.56,39.71 9.04,9.65 20.39,14.5 34.05,14.5 13.92,0 25.32,-4.88 34.33,-14.63 8.97,-9.75 13.47,-23.61 13.47,-41.56 0,-11.35 -1.92,-21.27 -5.76,-29.73 -3.83,-8.45 -9.45,-15.02 -16.84,-19.67 -7.42,-4.66 -15.7,-6.99 -24.9,-6.99 -13.07,0 -24.33,4.49 -33.75,13.47 -9.44,8.98 -14.15,23.94 -14.15,44.91l0 -0.01zm139.26 67.67l0 -139.7 94.24 0 0 16.4 -75.71 0 0 43.51 65.56 0 0 16.4 -65.56 0 0 63.41 -18.53 0 0 -0.01zm153.72 0l0 -123.31 -46.05 0 0 -16.4 110.62 0 0 16.4 -46.05 0 0 123.31 -18.53 0 0.01 0zm107.77 0l-36.78 -139.7 19.19 0 20.94 91.6c2.27,9.59 4.29,19.12 6.02,28.56 3.68,-14.89 5.82,-23.48 6.44,-25.75l26.41 -94.41 22.27 0 20.03 70.73c4.91,17.56 8.56,34.05 10.89,49.42 1.85,-8.81 4.24,-18.92 7.12,-30.33l21.82 -89.82 18.57 0 -38.24 139.7 -17.99 0 -29.3 -106.44c-2.47,-8.9 -3.97,-14.37 -4.52,-16.4 -1.6,6.38 -3.03,11.84 -4.26,16.35l-29.3 106.47 -19.32 0 0.01 0.01zm137.49 0l53.59 -139.7 20.32 0 56.88 139.7 -21.04 0 -16.16 -42.34 -58.83 0 -15.15 42.34 -19.61 0zm40.18 -57.37l47.6 0 -14.57 -38.73c-4.39,-11.77 -7.7,-21.5 -10.02,-29.17 -1.92,9.11 -4.49,18.05 -7.71,26.9l-15.32 41 0.01 0zm105.66 57.37l0 -139.7 61.91 0c12.46,0 21.92,1.27 28.39,3.77 6.47,2.51 11.64,6.93 15.51,13.27 3.87,6.34 5.79,13.37 5.79,21.04 0,9.92 -3.22,18.28 -9.62,25.07 -6.41,6.8 -16.29,11.09 -29.69,12.95 4.91,2.34 8.62,4.68 11.15,6.96 5.4,4.94 10.51,11.15 15.29,18.6l24.15 38.05 -23.09 0 -18.47 -29.07c-5.37,-8.42 -9.83,-14.83 -13.31,-19.28 -3.51,-4.46 -6.63,-7.55 -9.39,-9.33 -2.73,-1.76 -5.56,-2.99 -8.42,-3.71 -2.08,-0.42 -5.5,-0.65 -10.28,-0.65l-21.4 0 0 62.05 -18.53 0 0.01 -0.02zm18.53 -78.05l39.67 0c8.45,0 15.02,-0.88 19.77,-2.63 4.75,-1.72 8.36,-4.52 10.79,-8.39 2.47,-3.84 3.71,-8 3.71,-12.52 0,-6.61 -2.38,-12.06 -7.16,-16.32 -4.78,-4.26 -12.32,-6.38 -22.64,-6.38l-44.15 0 0 46.24 0.01 -0.02zm122.36 78.05l0 -139.7 100.88 0 0 16.4 -82.34 0 0 42.93 77.07 0 0 16.4 -77.07 0 0 47.6 85.65 0 0 16.4 -104.19 0 0 -0.01zm183.96 0l0 -139.7 48.13 0c10.86,0 19.16,0.65 24.88,1.99 7.99,1.85 14.83,5.21 20.49,10.02 7.38,6.25 12.88,14.18 16.52,23.87 3.68,9.69 5.5,20.78 5.5,33.24 0,10.6 -1.23,20 -3.71,28.2 -2.47,8.19 -5.66,14.99 -9.53,20.36 -3.91,5.36 -8.13,9.59 -12.75,12.65 -4.58,3.09 -10.15,5.43 -16.65,7.03 -6.53,1.59 -14.01,2.37 -22.47,2.37l-50.41 0 0 -0.01zm18.53 -16.4l29.79 0c9.2,0 16.42,-0.85 21.66,-2.57 5.24,-1.72 9.39,-4.13 12.52,-7.25 4.36,-4.39 7.77,-10.31 10.21,-17.72 2.44,-7.41 3.68,-16.4 3.68,-26.96 0,-14.63 -2.41,-25.89 -7.19,-33.75 -4.78,-7.87 -10.61,-13.14 -17.46,-15.8 -4.94,-1.92 -12.9,-2.86 -23.9,-2.86l-29.3 0 0 106.92 -0.01 0zm122.75 16.4l0 -139.7 100.88 0 0 16.4 -82.34 0 0 42.93 77.07 0 0 16.4 -77.07 0 0 47.6 85.65 0 0 16.4 -104.19 0 0 -0.01zm169.55 0l-53.98 -139.7 20.03 0 36.3 101.52c2.89,8.13 5.36,15.74 7.31,22.86 2.14,-7.64 4.66,-15.25 7.5,-22.86l37.66 -101.52 18.86 0 -54.46 139.7 -19.22 0 0.01 0zm90.74 0l0 -139.7 100.88 0 0 16.4 -82.34 0 0 42.93 77.07 0 0 16.4 -77.07 0 0 47.6 85.65 0 0 16.4 -104.19 0 0 -0.01zm128.96 0l0 -139.7 18.53 0 0 123.31 68.68 0 0 16.4 -87.21 0 0 -0.01zm103.64 -68c0,-23.15 6.24,-41.31 18.69,-54.4 12.46,-13.1 28.52,-19.64 48.23,-19.64 12.9,0 24.52,3.09 34.89,9.23 10.34,6.14 18.24,14.73 23.67,25.76 5.43,11 8.16,23.48 8.16,37.43 0,14.15 -2.86,26.83 -8.58,37.98 -5.72,11.18 -13.82,19.64 -24.29,25.36 -10.51,5.76 -21.82,8.62 -33.96,8.62 -13.17,0 -24.91,-3.18 -35.28,-9.53 -10.34,-6.34 -18.21,-14.99 -23.55,-25.98 -5.33,-10.95 -7.99,-22.57 -7.99,-34.83l0.01 0.01zm19.12 0.32c0,16.82 4.52,30.04 13.56,39.71 9.04,9.65 20.39,14.5 34.05,14.5 13.92,0 25.33,-4.88 34.34,-14.63 8.97,-9.75 13.47,-23.61 13.47,-41.56 0,-11.35 -1.92,-21.27 -5.76,-29.73 -3.83,-8.45 -9.45,-15.02 -16.84,-19.67 -7.42,-4.66 -15.71,-6.99 -24.91,-6.99 -13.07,0 -24.33,4.49 -33.75,13.47 -9.44,8.98 -14.15,23.94 -14.15,44.91l-0.01 -0.01zm138.3 67.67l0 -139.7 52.74 0c9.26,0 16.35,0.46 21.27,1.33 6.86,1.14 12.62,3.32 17.27,6.5 4.66,3.22 8.39,7.71 11.22,13.47 2.83,5.75 4.22,12.1 4.22,19.02 0,11.84 -3.77,21.89 -11.35,30.08 -7.55,8.23 -21.23,12.32 -41,12.32l-35.84 0 0 56.98 -18.53 0 0 -0.01zm18.53 -73.37l36.09 0c11.97,0 20.42,-2.21 25.46,-6.66 5,-4.46 7.5,-10.7 7.5,-18.79 0,-5.82 -1.46,-10.83 -4.42,-14.99 -2.96,-4.17 -6.86,-6.92 -11.68,-8.26 -3.11,-0.81 -8.87,-1.23 -17.23,-1.23l-35.74 0 0 49.95 0.01 -0.01zm111.99 73.37l0 -139.7 100.88 0 0 16.4 -82.34 0 0 42.93 77.07 0 0 16.4 -77.07 0 0 47.6 85.65 0 0 16.4 -104.19 0 0 -0.01zm130.14 0l0 -139.7 61.91 0c12.46,0 21.92,1.27 28.39,3.77 6.47,2.51 11.64,6.93 15.51,13.27 3.87,6.34 5.79,13.37 5.79,21.04 0,9.92 -3.22,18.28 -9.62,25.07 -6.41,6.8 -16.29,11.09 -29.69,12.95 4.91,2.34 8.62,4.68 11.15,6.96 5.4,4.94 10.51,11.15 15.29,18.6l24.15 38.05 -23.09 0 -18.47 -29.07c-5.37,-8.42 -9.83,-14.83 -13.31,-19.28 -3.51,-4.46 -6.63,-7.55 -9.39,-9.33 -2.73,-1.76 -5.56,-2.99 -8.42,-3.71 -2.08,-0.42 -5.5,-0.65 -10.28,-0.65l-21.4 0 0 62.05 -18.53 0 0.01 -0.02zm18.53 -78.05l39.67 0c8.45,0 15.02,-0.88 19.77,-2.63 4.75,-1.72 8.36,-4.52 10.79,-8.39 2.47,-3.84 3.71,-8 3.71,-12.52 0,-6.61 -2.38,-12.06 -7.16,-16.32 -4.78,-4.26 -12.32,-6.38 -22.64,-6.38l-44.15 0 0 46.24 0.01 -0.02z"/>
 </g>
</svg>
