<?xml version="1.0" encoding="UTF-8"?>
<!DOCTYPE svg PUBLIC "-//W3C//DTD SVG 1.1//EN" "http://www.w3.org/Graphics/SVG/1.1/DTD/svg11.dtd">
<!-- Creator: CorelDRAW 2020 (64 Bit) -->
<svg xmlns="http://www.w3.org/2000/svg" xml:space="preserve" width="49.925mm" height="9.5249mm" version="1.1" style="shape-rendering:geometricPrecision; text-rendering:geometricPrecision; image-rendering:optimizeQuality; fill-rule:evenodd; clip-rule:evenodd"
viewBox="0 0 3132.71 597.67"
 xmlns:xlink="http://www.w3.org/1999/xlink"
 xmlns:xodm="http://www.corel.com/coreldraw/odm/2003">
 <defs>
  <style type="text/css">
   <![CDATA[
    .fil6 {fill:none;fill-rule:nonzero}
    .fil2 {fill:#0063C6;fill-rule:nonzero}
    .fil0 {fill:#0F2137;fill-rule:nonzero}
    .fil4 {fill:#24548F;fill-rule:nonzero}
    .fil3 {fill:#367ED6;fill-rule:nonzero}
    .fil5 {fill:#70A0DB;fill-rule:nonzero}
    .fil1 {fill:#D1E8FF;fill-rule:nonzero}
   ]]>
  </style>
   <clipPath id="id0" style="clip-rule:nonzero">
    <path d="M-0 597.67l597.68 0 0 -597.67 -597.68 0 0 597.67z"/>
   </clipPath>
 </defs>
 <g id="Camada_x0020_1">
  <metadata id="CorelCorpID_0Corel-Layer"/>
  <path class="fil0" d="M864.82 183.14l-95.92 0 0 99.09 -49.96 0 0 -242.48 157.87 0 0 40.47 -107.91 0 0 62.62 95.92 0 0 40.3zm94.1 99.09l-49.96 0 0 -242.48 49.96 0 0 242.48zm96.42 -40.13l106.09 0 0 40.13 -156.05 0 0 -242.48 49.96 0 0 202.34zm188.02 40.13l-49.96 0 0 -242.48 49.96 0 0 242.48zm96.43 -85.43l0 85.43 -49.96 0 0 -242.48 94.59 0c18.21,0 34.2,3.33 47.96,10 13.87,6.66 24.53,16.15 31.98,28.48 7.44,12.21 11.16,26.15 11.16,41.8 0,23.76 -8.16,42.52 -24.48,56.29 -16.21,13.66 -38.69,20.49 -67.45,20.49l-43.8 0zm0 -40.47l44.63 0c13.21,0 23.26,-3.11 30.14,-9.33 7,-6.22 10.49,-15.1 10.49,-26.64 0,-11.88 -3.5,-21.48 -10.49,-28.81 -7,-7.32 -16.65,-11.1 -28.98,-11.32l-45.8 0 0 76.11zm316.09 20.81l-95.92 0 0 64.95 112.58 0 0 40.13 -162.55 0 0 -242.48 162.2 0 0 40.47 -112.24 0 0 57.78 95.92 0 0 39.14zm130.9 105.08l0 -242.48 84.94 0c29.42,0 51.74,5.67 66.94,16.99 15.21,11.21 22.82,27.7 22.82,49.46 0,11.88 -3.06,22.37 -9.15,31.47 -6.11,8.99 -14.61,15.6 -25.48,19.82 12.43,3.11 22.19,9.38 29.3,18.82 7.22,9.44 10.83,20.98 10.83,34.64 0,23.31 -7.44,40.97 -22.31,52.96 -14.88,11.98 -36.08,18.1 -63.62,18.32l-94.25 0zm49.96 -105.59l0 65.45 42.8 0c11.77,0 20.93,-2.78 27.47,-8.33 6.66,-5.67 10,-13.43 10,-23.32 0,-22.21 -11.49,-33.48 -34.47,-33.81l-45.8 0zm0 -35.3l36.97 0c25.2,-0.45 37.8,-10.49 37.8,-30.14 0,-10.99 -3.22,-18.87 -9.66,-23.65 -6.33,-4.88 -16.37,-7.32 -30.14,-7.32l-34.98 0 0 61.12zm304.76 90.93l-87.61 0 -16.65 49.96 -53.12 0 90.26 -242.48 46.3 0 90.77 242.48 -53.13 0 -16.82 -49.96zm-74.11 -40.47l60.61 0 -30.46 -90.77 -30.15 90.77zm329.24 -111.58l-74.28 0 0 202.01 -49.95 0 0 -202.01 -73.26 0 0 -40.47 197.5 0 0 40.47zm81.76 202.01l-49.95 0 0 -242.48 49.95 0 0 242.48zm172.22 -63.61c0,-9.44 -3.34,-16.65 -10,-21.65 -6.68,-5.11 -18.66,-10.44 -35.98,-15.98 -17.31,-5.67 -31.03,-11.22 -41.14,-16.65 -27.53,-14.88 -41.29,-34.92 -41.29,-60.13 0,-13.1 3.65,-24.75 10.99,-34.97 7.44,-10.33 18.03,-18.37 31.81,-24.15 13.88,-5.78 29.42,-8.67 46.62,-8.67 17.33,0 32.75,3.17 46.3,9.49 13.55,6.22 24.05,15.05 31.48,26.48 7.54,11.44 11.32,24.43 11.32,38.97l-49.95 0c0,-11.11 -3.5,-19.71 -10.49,-25.81 -7.01,-6.22 -16.84,-9.32 -29.49,-9.32 -12.2,0 -21.7,2.6 -28.48,7.82 -6.77,5.11 -10.16,11.88 -10.16,20.32 0,7.88 3.93,14.49 11.82,19.82 8,5.33 19.71,10.33 35.15,14.99 28.42,8.55 49.13,19.15 62.11,31.81 13,12.66 19.49,28.42 19.49,47.3 0,20.98 -7.93,37.47 -23.82,49.46 -15.88,11.88 -37.24,17.82 -64.12,17.82 -18.64,0 -35.63,-3.39 -50.95,-10.16 -15.32,-6.88 -27.03,-16.26 -35.15,-28.14 -7.99,-11.88 -11.98,-25.65 -11.98,-41.3l50.14 0c0,26.76 15.99,40.13 47.95,40.13 11.89,0 21.15,-2.39 27.83,-7.17 6.66,-4.88 10,-11.65 10,-20.31zm266.61 -138.39l-74.28 0 0 202.01 -49.96 0 0 -202.01 -73.28 0 0 -40.47 197.51 0 0 40.47zm145.55 152.05l-87.59 0 -16.65 49.96 -53.13 0 90.27 -242.48 46.28 0 90.77 242.48 -53.13 0 -16.82 -49.96zm-74.11 -40.47l60.63 0 -30.48 -90.77 -30.15 90.77z"/>
  <path class="fil0" d="M713.62 542.01l0 -140.68 39.71 0c12.24,0 23.06,2.7 32.46,8.11 9.41,5.42 16.65,13.11 21.74,23.09 5.15,9.99 7.76,21.45 7.82,34.4l0 8.99c0,13.27 -2.57,24.9 -7.73,34.88 -5.08,9.98 -12.4,17.65 -21.93,23 -9.47,5.35 -20.51,8.08 -33.14,8.21l-38.94 0zm18.55 -125.41l0 110.24 19.52 0c14.3,0 25.41,-4.44 33.33,-13.33 7.99,-8.89 11.98,-21.55 11.98,-37.97l0 -8.21c0,-15.98 -3.77,-28.37 -11.31,-37.2 -7.47,-8.89 -18.1,-13.4 -31.88,-13.52l-21.65 0zm190.83 60.39l-60.97 0 0 49.85 70.82 0 0 15.17 -89.37 0 0 -140.68 88.41 0 0 15.27 -69.85 0 0 45.22 60.97 0 0 15.17zm74.39 2.32c-15.91,-4.57 -27.5,-10.18 -34.78,-16.81 -7.22,-6.7 -10.82,-14.95 -10.82,-24.74 0,-11.08 4.41,-20.22 13.23,-27.44 8.89,-7.28 20.42,-10.92 34.59,-10.92 9.66,0 18.26,1.86 25.8,5.6 7.6,3.73 13.47,8.89 17.58,15.46 4.19,6.57 6.28,13.75 6.28,21.55l-18.64 0c0,-8.51 -2.71,-15.17 -8.12,-20 -5.41,-4.89 -13.05,-7.34 -22.9,-7.34 -9.15,0 -16.3,2.03 -21.45,6.09 -5.09,3.99 -7.63,9.56 -7.63,16.72 0,5.73 2.42,10.59 7.25,14.59 4.89,3.93 13.17,7.54 24.83,10.82 11.72,3.29 20.87,6.93 27.44,10.92 6.64,3.93 11.53,8.53 14.68,13.81 3.23,5.28 4.83,11.5 4.83,18.65 0,11.4 -4.44,20.55 -13.33,27.44 -8.89,6.83 -20.78,10.24 -35.65,10.24 -9.66,0 -18.68,-1.83 -27.06,-5.5 -8.37,-3.73 -14.85,-8.82 -19.42,-15.27 -4.51,-6.44 -6.76,-13.75 -6.76,-21.93l18.65 0c0,8.5 3.12,15.23 9.37,20.19 6.31,4.89 14.71,7.34 25.22,7.34 9.79,0 17.29,-2 22.51,-5.99 5.22,-3.99 7.83,-9.44 7.83,-16.33 0,-6.89 -2.42,-12.2 -7.25,-15.94 -4.83,-3.8 -13.59,-7.54 -26.29,-11.21zm155.57 -2.32l-60.97 0 0 49.85 70.82 0 0 15.17 -89.37 0 0 -140.68 88.41 0 0 15.27 -69.86 0 0 45.22 60.97 0 0 15.17zm141.06 65.02l-18.65 0 -70.82 -108.4 0 108.4 -18.65 0 0 -140.68 18.65 0 71.02 108.89 0 -108.89 18.45 0 0 140.68zm79.52 -24.63l40.19 -116.04 20.29 0 -52.18 140.68 -16.43 0 -52.08 -140.68 20.2 0 40 116.04zm186.28 -41.16c0,13.78 -2.32,25.83 -6.95,36.13 -4.64,10.25 -11.21,18.07 -19.71,23.48 -8.51,5.41 -18.43,8.11 -29.76,8.11 -11.08,0 -20.91,-2.7 -29.47,-8.11 -8.57,-5.47 -15.24,-13.23 -20,-23.29 -4.7,-10.11 -7.12,-21.81 -7.25,-35.07l0 -10.15c0,-13.53 2.35,-25.48 7.05,-35.85 4.7,-10.37 11.34,-18.29 19.9,-23.77 8.63,-5.54 18.49,-8.31 29.57,-8.31 11.27,0 21.19,2.74 29.76,8.21 8.63,5.41 15.26,13.3 19.9,23.67 4.64,10.31 6.95,22.32 6.95,36.04l0 8.89zm-18.45 -9.09c0,-16.68 -3.35,-29.47 -10.05,-38.36 -6.7,-8.95 -16.07,-13.43 -28.12,-13.43 -11.72,0 -20.97,4.47 -27.73,13.43 -6.7,8.89 -10.15,21.25 -10.34,37.1l0 10.34c0,16.16 3.38,28.89 10.15,38.16 6.83,9.21 16.2,13.82 28.12,13.82 11.98,0 21.25,-4.35 27.83,-13.05 6.57,-8.76 9.95,-21.29 10.14,-37.59l0 -10.44zm64.93 59.71l66.66 0 0 15.17 -85.31 0 0 -140.68 18.65 0 0 125.51zm117.4 -9.47l40.19 -116.04 20.29 0 -52.18 140.68 -16.42 0 -52.08 -140.68 20.19 0 40.01 116.04zm158.93 -40.38l-60.96 0 0 49.85 70.82 0 0 15.17 -89.38 0 0 -140.68 88.42 0 0 15.27 -69.86 0 0 45.22 60.96 0 0 15.17zm32.96 65.02l0 -140.68 39.71 0c12.24,0 23.06,2.7 32.46,8.11 9.39,5.42 16.65,13.11 21.73,23.09 5.16,9.99 7.77,21.45 7.84,34.4l0 8.99c0,13.27 -2.57,24.9 -7.74,34.88 -5.08,9.98 -12.4,17.65 -21.93,23 -9.46,5.35 -20.52,8.08 -33.14,8.21l-38.94 0zm18.55 -125.41l0 110.24 19.52 0c14.29,0 25.4,-4.44 33.32,-13.33 8.01,-8.89 11.99,-21.55 11.99,-37.97l0 -8.21c0,-15.98 -3.77,-28.37 -11.31,-37.2 -7.47,-8.89 -18.1,-13.4 -31.88,-13.52l-21.65 0zm219.53 59.62c0,13.78 -2.33,25.83 -6.96,36.13 -4.65,10.25 -11.23,18.07 -19.72,23.48 -8.5,5.41 -18.42,8.11 -29.76,8.11 -11.07,0 -20.9,-2.7 -29.47,-8.11 -8.57,-5.47 -15.24,-13.23 -20,-23.29 -4.7,-10.11 -7.12,-21.81 -7.24,-35.07l0 -10.15c0,-13.53 2.34,-25.48 7.04,-35.85 4.71,-10.37 11.34,-18.29 19.9,-23.77 8.63,-5.54 18.5,-8.31 29.57,-8.31 11.27,0 21.2,2.74 29.77,8.21 8.63,5.41 15.25,13.3 19.9,23.67 4.63,10.31 6.96,22.32 6.96,36.04l0 8.89zm-18.47 -9.09c0,-16.68 -3.35,-29.47 -10.04,-38.36 -6.71,-8.95 -16.08,-13.43 -28.12,-13.43 -11.72,0 -20.97,4.47 -27.73,13.43 -6.71,8.89 -10.15,21.25 -10.34,37.1l0 10.34c0,16.16 3.38,28.89 10.14,38.16 6.84,9.21 16.21,13.82 28.12,13.82 11.99,0 21.25,-4.35 27.83,-13.05 6.58,-8.76 9.95,-21.29 10.14,-37.59l0 -10.44zm97.87 17.97l-33.04 0 0 56.91 -18.64 0 0 -140.68 46.57 0c15.84,0 28.02,3.61 36.52,10.82 8.57,7.22 12.85,17.71 12.85,31.5 0,8.76 -2.39,16.4 -7.15,22.9 -4.7,6.5 -11.28,11.36 -19.71,14.59l33.04 59.71 0 1.15 -19.89 0 -30.55 -56.91zm-33.04 -15.17l28.51 0c9.22,0 16.52,-2.38 21.93,-7.15 5.48,-4.77 8.22,-11.14 8.22,-19.13 0,-8.7 -2.6,-15.36 -7.84,-20 -5.15,-4.64 -12.62,-6.99 -22.41,-7.05l-28.41 0 0 53.34zm152.48 72.07l0 -140.68 39.71 0c12.24,0 23.06,2.7 32.45,8.11 9.41,5.42 16.65,13.11 21.75,23.09 5.15,9.99 7.76,21.45 7.82,34.4l0 8.99c0,13.27 -2.57,24.9 -7.74,34.88 -5.08,9.98 -12.38,17.65 -21.93,23 -9.46,5.35 -20.5,8.08 -33.14,8.21l-38.93 0zm18.54 -125.41l0 110.24 19.53 0c14.29,0 25.4,-4.44 33.33,-13.33 7.99,-8.89 11.97,-21.55 11.97,-37.97l0 -8.21c0,-15.98 -3.77,-28.37 -11.31,-37.2 -7.47,-8.89 -18.1,-13.4 -31.88,-13.52l-21.65 0zm190.82 60.39l-60.96 0 0 49.85 70.82 0 0 15.17 -89.37 0 0 -140.68 88.41 0 0 15.27 -69.86 0 0 45.22 60.96 0 0 15.17zm159.71 28.31l-58.93 0 -13.23 36.71 -19.13 0 53.71 -140.68 16.24 0 53.82 140.68 -19.04 0 -13.43 -36.71zm-53.32 -15.27l47.83 0 -23.97 -65.8 -23.86 65.8zm123.29 -3.09l0 55.07 -18.56 0 0 -140.68 51.9 0c15.39,0 27.43,3.93 36.12,11.78 8.77,7.86 13.15,18.27 13.15,31.21 0,13.65 -4.28,24.19 -12.84,31.59 -8.5,7.34 -20.72,11.02 -36.63,11.02l-33.14 0zm0 -15.17l33.34 0c9.91,0 17.51,-2.32 22.79,-6.96 5.28,-4.7 7.92,-11.46 7.92,-20.29 0,-8.38 -2.64,-15.07 -7.92,-20.1 -5.28,-5.03 -12.53,-7.63 -21.73,-7.82l-34.4 0 0 55.17zm124.83 15.17l0 55.07 -18.55 0 0 -140.68 51.89 0c15.39,0 27.44,3.93 36.12,11.78 8.77,7.86 13.15,18.27 13.15,31.21 0,13.65 -4.28,24.19 -12.84,31.59 -8.5,7.34 -20.72,11.02 -36.63,11.02l-33.14 0zm0 -15.17l33.34 0c9.91,0 17.51,-2.32 22.79,-6.96 5.28,-4.7 7.94,-11.46 7.94,-20.29 0,-8.38 -2.65,-15.07 -7.94,-20.1 -5.28,-5.03 -12.52,-7.63 -21.73,-7.82l-34.4 0 0 55.17zm147.72 7.54c-15.9,-4.57 -27.49,-10.18 -34.78,-16.81 -7.2,-6.7 -10.82,-14.95 -10.82,-24.74 0,-11.08 4.42,-20.22 13.25,-27.44 8.88,-7.28 20.42,-10.92 34.58,-10.92 9.66,0 18.26,1.86 25.8,5.6 7.6,3.73 13.46,8.89 17.58,15.46 4.2,6.57 6.29,13.75 6.29,21.55l-18.66 0c0,-8.51 -2.7,-15.17 -8.1,-20 -5.41,-4.89 -13.05,-7.34 -22.91,-7.34 -9.15,0 -16.29,2.03 -21.45,6.09 -5.08,3.99 -7.62,9.56 -7.62,16.72 0,5.73 2.41,10.59 7.24,14.59 4.89,3.93 13.16,7.54 24.84,10.82 11.72,3.29 20.87,6.93 27.44,10.92 6.63,3.93 11.53,8.53 14.68,13.81 3.23,5.28 4.83,11.5 4.83,18.65 0,11.4 -4.45,20.55 -13.33,27.44 -8.89,6.83 -20.77,10.24 -35.67,10.24 -9.66,0 -18.67,-1.83 -27.04,-5.5 -8.36,-3.73 -14.84,-8.82 -19.42,-15.27 -4.5,-6.44 -6.76,-13.75 -6.76,-21.93l18.64 0c0,8.5 3.12,15.23 9.38,20.19 6.31,4.89 14.71,7.34 25.2,7.34 9.79,0 17.3,-2 22.51,-5.99 5.23,-3.99 7.84,-9.44 7.84,-16.33 0,-6.89 -2.42,-12.2 -7.25,-15.94 -4.83,-3.8 -13.58,-7.54 -26.29,-11.21z"/>
 </g>
 <g id="Camada_x0020_1_0">
  <metadata id="CorelCorpID_1Corel-Layer"/>
  <g>
  </g>
  <g style="clip-path:url(#id0)">
   <g>
    <polygon class="fil1" points="388.33,552.89 388.33,482.8 275.46,459.43 298.84,552.89 "/>
    <polygon class="fil1" points="209.35,552.89 298.84,552.89 298.84,459.43 209.35,482.8 "/>
    <polygon class="fil2" points="597.68,377.65 275.46,354.29 298.84,482.8 597.68,482.8 "/>
    <polygon class="fil3" points="-0,377.65 -0,482.8 298.84,482.8 298.84,354.29 "/>
    <polygon class="fil2" points="440.9,535.38 298.84,535.38 287.15,552.89 298.84,570.4 440.9,570.4 "/>
    <polygon class="fil3" points="298.84,535.38 156.77,535.38 156.77,570.39 298.84,570.39 "/>
    <polygon class="fil4" points="597.68,27.25 298.84,27.25 275.46,202.45 298.84,377.65 597.68,377.65 "/>
    <polygon class="fil5" points="298.84,27.25 -0,27.25 -0,377.65 298.84,377.65 "/>
    <polygon class="fil1" points="208.75,295.22 115.97,202.45 208.75,109.68 233.5,134.44 165.5,202.45 233.5,270.46 "/>
    <polygon class="fil1" points="388.93,295.22 364.16,270.46 432.17,202.45 364.16,134.44 388.93,109.68 481.69,202.45 "/>
    <polygon class="fil1" points="260.07,307.6 294.41,314.42 337.6,97.32 303.26,90.48 "/>
   </g>
  </g>
  <polygon class="fil6" points="-0,597.67 597.68,597.67 597.68,0 -0,0 "/>
 </g>
</svg>
